<?xml version="1.0" standalone="no"?><!DOCTYPE svg PUBLIC "-//W3C//DTD SVG 1.1//EN" "http://www.w3.org/Graphics/SVG/1.1/DTD/svg11.dtd"><svg t="1557407165845" class="icon" style="" viewBox="0 0 1024 1024" version="1.1" xmlns="http://www.w3.org/2000/svg" p-id="30003" xmlns:xlink="http://www.w3.org/1999/xlink" width="200" height="200"><defs><style type="text/css"></style></defs><path d="M880.3 805.7H164.6c-22.1 0-40.9-13.5-47.8-34.5-7-21-0.1-43.1 17.6-56.3 63-47.3 100.6-122.4 100.6-201.2V364.8c0-42.7 9.6-83.8 28.7-122.1 18-36.4 44.6-68.9 76.5-94.3 66.6-52.7 152.7-71.5 236.5-51.8 60.2 14.2 114.3 50 152.5 100.9 37.2 49.7 57.7 111.4 57.7 174v142.2c0 43.1 11.2 85.7 32.3 123.4 7.7 13.6 2.8 31-10.8 38.5-13.6 7.7-31 2.8-38.6-10.8-25.8-46-39.6-98.3-39.6-151.1V371.6c0-104.5-70.1-196.9-166.4-219.7-66.8-15.8-135.4-0.8-188.3 41-53.2 42.1-83.7 104.8-83.7 171.9v148.9c0 47.6-11.2 95.2-32.5 137.9-18.6 37.2-44.9 70.6-76.6 97.5h697.9c15.6 0 28.3 12.7 28.3 28.3s-13 28.3-28.6 28.3z m-369.5 215.8c-76.3 0-138.3-62-138.3-138.3 0-15.6 12.7-28.3 28.3-28.3 15.6 0 28.3 12.7 28.3 28.3 0 45 36.6 81.6 81.6 81.6 45 0 81.6-36.6 81.6-81.6 0-15.6 12.7-28.3 28.3-28.3 15.6 0 28.3 12.7 28.3 28.3 0.2 76.3-61.8 138.3-138.1 138.3z m0 0" fill="#555555" p-id="30004"></path><path d="M451.6 62.3c0 32.7 26.5 59.2 59.2 59.2S570 95 570 62.3c0-21.1-11.3-40.7-29.6-51.3a59.08 59.08 0 0 0-59.2 0c-18.3 10.6-29.6 30.1-29.6 51.3z m0 0" fill="#555555" p-id="30005"></path></svg>