<?xml version="1.0" standalone="no"?><!DOCTYPE svg PUBLIC "-//W3C//DTD SVG 1.1//EN" "http://www.w3.org/Graphics/SVG/1.1/DTD/svg11.dtd"><svg t="1557406559181" class="icon" style="" viewBox="0 0 1034 1024" version="1.1" xmlns="http://www.w3.org/2000/svg" p-id="26727" xmlns:xlink="http://www.w3.org/1999/xlink" width="201.953125" height="200"><defs><style type="text/css"></style></defs><path d="M714.859309 630.153846v-140.871349c6.164548-91.326644-42.923523-134.935117-134.935117-134.935117-85.847046-6.164548-141.099666 30.594426-159.821628 104.112375l55.024303 12.329097c6.164548-49.088071 36.987291-73.517949 104.340692-68.494984 61.417168 0 91.326644 30.822742 85.847045 91.326645-12.329097 12.329097-55.25262 18.493645-122.60602 24.658194q-128.770569 9.132664-128.770568 110.276923c6.164548 61.417168 42.923523 85.847046 116.441471 91.326644 61.417168 0 110.50524-18.265329 134.935117-61.188851a68.494983 68.494983 0 0 0 19.635229 51.14292h49.088071c-13.014047-12.10078-19.178595-42.923523-19.178595-79.682497z m-55.25262-55.024303c-6.164548 61.188852-42.923523 97.947826-110.276923 104.112375-49.088071 0-79.682497-18.265329-79.682497-55.25262s30.594426-61.188852 91.326644-67.353401 91.326644-12.329097 97.947826-24.429877zM806.870903 231.513043h49.088071v478.3233h-49.088071zM941.80602 231.513043h49.088071v478.3233h-49.088071z" fill="#5F6165" p-id="26728"></path><path d="M770.568562 785.409142a101.144259 101.144259 0 0 0-103.655741 103.655741 68.494983 68.494983 0 0 0 7.306131 37.215608 584.947157 584.947157 0 0 1-163.01806 22.831661 444.532441 444.532441 0 0 1 0-889.064883 448.870457 448.870457 0 0 1 273.979933 88.815161c14.84058 7.534448 29.681159 7.534448 36.987291-7.306131s7.534448-29.681159-7.306132-37.215608A523.758305 523.758305 0 0 0 503.89476 0a503.89476 503.89476 0 0 0 0 1007.789521 631.067113 631.067113 0 0 0 200.005351-37.215608 91.326644 91.326644 0 0 0 66.668451 22.831661 103.884058 103.884058 0 0 0 0-207.539799z" fill="#5F6165" p-id="26729"></path></svg>