<?xml version="1.0" standalone="no"?><!DOCTYPE svg PUBLIC "-//W3C//DTD SVG 1.1//EN" "http://www.w3.org/Graphics/SVG/1.1/DTD/svg11.dtd"><svg t="1559782104356" class="icon" style="" viewBox="0 0 1024 1024" version="1.1" xmlns="http://www.w3.org/2000/svg" p-id="12778" xmlns:xlink="http://www.w3.org/1999/xlink" width="130" height="130"><defs><style type="text/css"></style></defs><path d="M781 63.3H243.4c-59.1 0-107.5 44.8-107.5 99.6v796.6l376.3-149.4 376.3 149.4V162.9c0-54.8-48.4-99.6-107.5-99.6z m-8.4 439.2c0 19.8-16.2 36.1-36.1 36.1H287.9c-19.8 0-36.1-16.2-36.1-36.1v-20.7c0-19.8 16.2-36.1 36.1-36.1h448.6c19.8 0 36.1 16.2 36.1 36.1v20.7z m0-206.2c0 19.8-16.2 36.1-36.1 36.1H287.9c-19.8 0-36.1-16.2-36.1-36.1v-20.7c0-19.8 16.2-36.1 36.1-36.1h448.6c19.8 0 36.1 16.2 36.1 36.1v20.7z m0 0" fill="#4990EE" p-id="12779"></path></svg>