<?xml version="1.0" standalone="no"?><!DOCTYPE svg PUBLIC "-//W3C//DTD SVG 1.1//EN" "http://www.w3.org/Graphics/SVG/1.1/DTD/svg11.dtd"><svg t="1557406930156" class="icon" style="" viewBox="0 0 1024 1024" version="1.1" xmlns="http://www.w3.org/2000/svg" p-id="27995" xmlns:xlink="http://www.w3.org/1999/xlink" width="200" height="200"><defs><style type="text/css"></style></defs><path d="M512 113.777778c221.866667 0 398.222222 176.355556 398.222222 398.222222s-176.355556 398.222222-398.222222 398.222222-398.222222-176.355556-398.222222-398.222222 176.355556-398.222222 398.222222-398.222222m0-56.888889C261.688889 56.888889 56.888889 261.688889 56.888889 512s204.8 455.111111 455.111111 455.111111 455.111111-204.8 455.111111-455.111111-204.8-455.111111-455.111111-455.111111z" fill="#333333" p-id="27996"></path><path d="M540.444444 284.444444H398.222222v455.111112h56.888889v-170.666667h85.333333c79.644444 0 142.222222-62.577778 142.222223-142.222222S620.088889 284.444444 540.444444 284.444444z m0 227.555556H455.111111V341.333333h85.333333c45.511111 0 85.333333 39.822222 85.333334 85.333334S585.955556 512 540.444444 512z" fill="#333333" p-id="27997"></path></svg>