<?xml version="1.0" standalone="no"?><!DOCTYPE svg PUBLIC "-//W3C//DTD SVG 1.1//EN" "http://www.w3.org/Graphics/SVG/1.1/DTD/svg11.dtd"><svg t="1559742380662" class="icon" style="" viewBox="0 0 1024 1024" version="1.1" xmlns="http://www.w3.org/2000/svg" p-id="3151" xmlns:xlink="http://www.w3.org/1999/xlink" width="130" height="130"><defs><style type="text/css"></style></defs><path d="M992 884.80421094c0 34.87999969-28.277895 63.15789469-63.15789469 63.15789468H95.15789469c-34.87999969 0-63.15789469-28.277895-63.15789469-63.15789468V401.95368406c0-34.87999969 28.277895-63.15789469 63.15789469-63.15789469h833.68421062c34.87999969 0 63.15789469 28.277895 63.15789469 63.15789469v482.85052688z" fill="#FF5E3B" p-id="3152"></path><path d="M787.505404 732.752842h47.620491v51.195509h-47.620491v-51.195509z m-153.6 55.296a110.596491 110.596491 0 0 0 87.044491-35.328 131.072 131.072 0 0 0 31.227509-98.816 148.48 148.48 0 0 0-31.227509-98.304 118.797474 118.797474 0 0 0-90.628491-35.328 121.824561 121.824561 0 0 0-55.296 11.776 58.385965 58.385965 0 0 0-31.236492 23.552 180.098246 180.098246 0 0 0-24.059508 35.328 174.547088 174.547088 0 0 0-11.776 67.072 144.913965 144.913965 0 0 0 31.744 98.308491 150.545965 150.545965 0 0 0 94.208 31.739509z m-15.36-216.576c62.971509 0 82.432 23.552 82.432 78.848s-19.456 82.432-82.432 82.432c-39.419509 0-55.296-23.552-55.296-82.432-3.880421-36.414877 19.743439-70.094596 55.296-78.848z m-295.424 54.779509l105.984 161.792h55.296V516.176842H429.105404v161.28l-105.984-161.28H267.825404v271.872h55.296v-161.796491z" fill="#FFFFFF" p-id="3153"></path><path d="M106.545404 289.917754h807.424a33.28 33.28 0 0 0 27.136-27.648 33.28 33.28 0 0 0-27.136-27.648H106.545404a33.792 33.792 0 0 0-27.648 27.648 33.28 33.28 0 0 0 27.648 27.648zM235.973614 177.637053H757.221053c9.058807-2.461193 16.101053-13.572491 17.515789-27.643509-1.414737-14.075509-8.461474-25.191298-17.515789-27.648H235.973614c-9.139649 2.402807-16.294175 13.491649-17.84814 27.648 1.459649 14.223719 8.663579 25.384421 17.84814 27.643509z" fill="#FF5E3B" p-id="3154"></path></svg>