<?xml version="1.0" standalone="no"?><!DOCTYPE svg PUBLIC "-//W3C//DTD SVG 1.1//EN" "http://www.w3.org/Graphics/SVG/1.1/DTD/svg11.dtd"><svg t="1559745814659" class="icon" style="" viewBox="0 0 1024 1024" version="1.1" xmlns="http://www.w3.org/2000/svg" p-id="7710" xmlns:xlink="http://www.w3.org/1999/xlink" width="130" height="130"><defs><style type="text/css"></style></defs><path d="M769.726274 1.150849h-494.865135A144.751249 144.751249 0 0 0 130.237762 145.774226v733.538461a144.751249 144.751249 0 0 0 144.623377 144.687313h494.929071a144.815185 144.815185 0 0 0 144.687312-144.687313V145.774226A144.943057 144.943057 0 0 0 769.726274 1.150849z m116.2997 878.161838a116.235764 116.235764 0 0 1-116.235764 116.235765H274.861139a116.2997 116.2997 0 0 1-116.235764-116.235765V145.774226A116.363636 116.363636 0 0 1 274.861139 29.538462h494.929071c64.191808 0 116.235764 52.107892 116.235764 116.235764v733.538461z" fill="#97DFF2" p-id="7711"></path><path d="M644.923077 526.769231H542.36963A144.751249 144.751249 0 0 0 397.746254 671.328671v113.422578a144.815185 144.815185 0 0 0 144.623376 144.623376h102.553447a144.751249 144.751249 0 0 0 144.495504-144.623376V671.328671a144.751249 144.751249 0 0 0-144.495504-144.55944z m116.107892 257.982018a116.171828 116.171828 0 0 1-116.043956 116.171828H542.36963a116.2997 116.2997 0 0 1-116.171828-116.171828V671.328671a116.363636 116.363636 0 0 1 116.171828-116.171828h102.553447c64 0 116.043956 52.107892 116.043956 116.171828v113.422578zM322.749251 210.989011h399.152847a14.065934 14.065934 0 0 0 14.12987-14.193806 14.065934 14.065934 0 0 0-14.12987-14.193806H322.749251a14.193806 14.193806 0 0 0 0 28.387612zM735.968032 402.285714a14.065934 14.065934 0 0 0-14.12987-14.193806H322.749251a14.193806 14.193806 0 0 0 0 28.387612h399.152847a14.065934 14.065934 0 0 0 14.065934-14.193806z" fill="#97DFF2" p-id="7712"></path><path d="M567.752248 621.138861H486.297702v81.326673h71.224776v132.667333h143.408591v-143.536463H567.752248z" fill="#97DFF2" p-id="7713"></path></svg>