<?xml version="1.0" standalone="no"?><!DOCTYPE svg PUBLIC "-//W3C//DTD SVG 1.1//EN" "http://www.w3.org/Graphics/SVG/1.1/DTD/svg11.dtd"><svg t="1559782008150" class="icon" style="" viewBox="0 0 1024 1024" version="1.1" xmlns="http://www.w3.org/2000/svg" p-id="11877" xmlns:xlink="http://www.w3.org/1999/xlink" width="130" height="130"><defs><style type="text/css"></style></defs><path d="M768 967.082667h-56.917333A28.416 28.416 0 0 1 682.666667 938.666667V768c0-15.701333 12.8-28.416 28.416-28.416H768V682.666667h170.666667v56.917333h56.917333c15.701333 0 28.416 12.714667 28.416 28.416v170.666667c0 15.701333-12.8 28.416-28.416 28.416H938.666667V1024H768v-56.917333z m170.666667-56.832h28.416V796.416H739.584v113.834667H768V853.333333h170.666667v56.917334z m-142.250667-28.501334v113.834667h113.834667v-113.834667H796.416z m0-170.666666V768h113.834667v-56.917333H796.416z m139.008-100.266667a256 256 0 0 0-312.917333 353.365333 41.898667 41.898667 0 0 1-13.653334-8.448l-106.922666-100.266666-114.346667 102.4a41.472 41.472 0 0 1-55.808-3.413334L238.421333 858.453333l-80.64 94.464a39.424 39.424 0 0 1-30.976 14.506667 41.216 41.216 0 0 1-41.472-41.472V41.472C85.333333 18.432 103.936 0 126.805333 0h767.402667c23.04 0 41.472 18.602667 41.472 41.472v191.061333a42.752 42.752 0 0 1-0.256 4.522667v373.76zM296.96 345.002667h438.442667c12.373333 0 22.357333-21.162667 22.357333-47.36 0-26.197333-9.984-47.445333-22.357333-47.445334H296.96c-12.373333 0-22.442667 21.248-22.442667 47.445334 0 26.197333 10.069333 47.36 22.442667 47.36z m0 224.256h438.442667c12.373333 0 22.357333-21.333333 22.357333-47.445334 0-26.197333-9.984-47.445333-22.357333-47.445333H296.96c-12.373333 0-22.442667 21.248-22.442667 47.445333 0 26.197333 10.069333 47.445333 22.442667 47.445334z" fill="#9571E9" p-id="11878"></path></svg>