<?xml version="1.0" standalone="no"?><!DOCTYPE svg PUBLIC "-//W3C//DTD SVG 1.1//EN" "http://www.w3.org/Graphics/SVG/1.1/DTD/svg11.dtd"><svg class="icon" width="200px" height="200.00px" viewBox="0 0 1024 1024" version="1.1" xmlns="http://www.w3.org/2000/svg"><path d="M512 32l224 320H288z" fill="#EA001D" /><path d="M512 576m-320 0a320 320 0 1 0 640 0 320 320 0 1 0-640 0Z"  /><path d="M512 576m-320 0a320 320 0 1 0 640 0 320 320 0 1 0-640 0Z" fill="#FFFFFF" /><path d="M512 576m-256 0a256 256 0 1 0 512 0 256 256 0 1 0-512 0Z" fill="#EA001D" /></svg>