<?xml version="1.0" standalone="no"?><!DOCTYPE svg PUBLIC "-//W3C//DTD SVG 1.1//EN" "http://www.w3.org/Graphics/SVG/1.1/DTD/svg11.dtd"><svg t="1559742297750" class="icon" style="" viewBox="0 0 1024 1024" version="1.1" xmlns="http://www.w3.org/2000/svg" p-id="2388" xmlns:xlink="http://www.w3.org/1999/xlink" width="130" height="130"><defs><style type="text/css"></style></defs><path d="M291.564849 1023.960617a148.86812 148.86812 0 0 1-0.118149-6.301296c0-97.748856 95.937233-176.987654 214.244067-176.987655 118.306834 0 214.244068 79.238799 214.244068 176.987655 0 2.087304-0.039383 4.213992-0.11815 6.301296H291.564849z m373.509326-533.837929L468.276821 780.179224c-139.33741 17.446714-246.144379 117.125341-246.144379 237.480097 0 2.087304 0 4.213992 0.078767 6.301296H90.395971C52.588194 964.964732 35.850376 916.523518 40.024985 878.597592c6.301296-56.90858 157.414253-322.390062 220.387831-353.975308C323.347011 493.037037 368.637577 480.395062 511.992063 480.395062c69.865621 0 116.416446 2.993116 153.082112 9.727626z m63.682474 18.510057c11.499865 4.647206 22.842198 9.963924 34.814661 15.989539 62.973578 31.585247 214.086535 297.066728 220.387831 353.975308 4.213992 37.925926-12.602592 86.36714-50.410368 145.363025h-131.775855a202.822968 202.822968 0 0 0 0.078766-6.301296c0-123.347871-112.163071-224.956271-256.580901-238.66159l183.485866-270.404369zM511.992063 442.429753c-121.81193 0-220.545364-99.048498-220.545363-221.25426C291.4467 99.048498 390.180133 0 511.992063 0c121.81193 0 220.545364 99.048498 220.545364 221.214876 0 122.205761-98.733433 221.254259-220.545364 221.25426z" fill="#4d95e9" p-id="2389"></path></svg>