<?xml version="1.0" standalone="no"?><!DOCTYPE svg PUBLIC "-//W3C//DTD SVG 1.1//EN" "http://www.w3.org/Graphics/SVG/1.1/DTD/svg11.dtd"><svg class="icon" width="200px" height="193.03px" viewBox="0 0 1061 1024" version="1.1" xmlns="http://www.w3.org/2000/svg"><path fill="#333333" d="M601.27763 54.840889C348.387556-12.932741 88.443259 137.140148 20.66963 390.068148c-67.77363 252.890074 82.299259 512.83437 335.227259 580.608 252.890074 67.77363 512.83437-82.299259 580.645926-335.227259l-36.674371-9.822815c-62.350222 232.675556-301.511111 370.763852-534.14874 308.41363-232.675556-62.350222-370.763852-301.511111-308.41363-534.186667C119.656296 167.253333 358.779259 29.127111 591.454815 91.477333l9.860741-36.636444z"  /><path fill="#333333" d="M440.661333 322.74963l189.364148 98.379851-3.147851 229.641482 314.936889-400.232296L440.661333 322.74963z m-122.159407-20.707556L1030.257778 199.49037 587.396741 762.273185l4.399407-318.27437-273.294222-141.956741z"  /></svg>