<?xml version="1.0" standalone="no"?><!DOCTYPE svg PUBLIC "-//W3C//DTD SVG 1.1//EN" "http://www.w3.org/Graphics/SVG/1.1/DTD/svg11.dtd"><svg t="1559613006610" class="icon" style="" viewBox="0 0 1024 1024" version="1.1" xmlns="http://www.w3.org/2000/svg" p-id="2679" xmlns:xlink="http://www.w3.org/1999/xlink" width="200" height="200"><defs><style type="text/css"></style></defs><path d="M910.222222 796.444444h-170.666666v-108.088888l261.688888-261.688889L597.333333 22.755556 113.777778 506.311111l79.644444 79.644445L113.777778 671.288889 352.711111 910.222222l79.644445-79.644444L517.688889 910.222222l164.977778-164.977778V853.333333h227.555555v113.777778h56.888889v-284.444444h-56.888889v113.777777z m-392.533333 34.133334l-79.644445-79.644445-79.644444 79.644445-159.288889-159.288889 79.644445-79.644445-85.333334-85.333333 403.911111-403.911111 324.266667 324.266667-403.911111 403.911111z" fill="#333333" p-id="2680"></path><path d="M398.222222 512m-56.888889 0a56.888889 56.888889 0 1 0 113.777778 0 56.888889 56.888889 0 1 0-113.777778 0Z" fill="#333333" p-id="2681"></path></svg>