<?xml version="1.0" standalone="no"?><!DOCTYPE svg PUBLIC "-//W3C//DTD SVG 1.1//EN" "http://www.w3.org/Graphics/SVG/1.1/DTD/svg11.dtd"><svg class="icon" width="200px" height="200.00px" viewBox="0 0 1024 1024" version="1.1" xmlns="http://www.w3.org/2000/svg"><path fill="#333333" d="M513.53 152.22a358.73 358.73 0 1 1-140.11 28.27 357.71 357.71 0 0 1 140.11-28.27m0-45c-223.68 0-405 181.32-405 405s181.32 405 405 405 405-181.32 405-405-181.32-405-405-405z"  /><path fill="#333333" d="M705.28 664.93a22.39 22.39 0 0 1-11.7-3.3L507.1 547.84a22.5 22.5 0 0 1-10.78-19.21V293.18a22.5 22.5 0 0 1 45 0V516L717 623.22a22.5 22.5 0 0 1-11.74 41.71z"  /></svg>