<?xml version="1.0" standalone="no"?><!DOCTYPE svg PUBLIC "-//W3C//DTD SVG 1.1//EN" "http://www.w3.org/Graphics/SVG/1.1/DTD/svg11.dtd"><svg t="1559781924030" class="icon" style="" viewBox="0 0 1024 1024" version="1.1" xmlns="http://www.w3.org/2000/svg" p-id="11533" xmlns:xlink="http://www.w3.org/1999/xlink" width="130" height="130"><defs><style type="text/css"></style></defs><path d="M578.7648 580.93568l-69.50912-49.80736-295.87456 197.14048a20.48 20.48 0 1 1-22.71232-34.07872l307.65056-205.0048a20.48 20.48 0 0 1 23.28576 0.4096l87.6544 62.7712a175.5136 175.5136 0 0 1 252.78464 234.55744l57.01632 32.93184a20.48 20.48 0 1 1-20.48 35.49184L836.03456 819.2a175.5136 175.5136 0 0 1-257.24928-238.2848z m134.43072 247.48032a134.5536 134.5536 0 1 0 0-269.14816 134.5536 134.5536 0 0 0 0 269.14816zM209.28512 392.92928a20.48 20.48 0 1 1 0-40.96H441.5488a20.48 20.48 0 0 1 0 40.96H209.3056zM131.95264 824.7296h391.74144a20.48 20.48 0 0 1 0 40.96H111.47264a20.48 20.48 0 0 1-20.48-20.48V210.26816a20.48 20.48 0 0 1 20.48-20.48h798.72a20.48 20.48 0 0 1 20.48 20.48v290.36544a20.48 20.48 0 0 1-40.96 0V230.74816h-757.76V824.7296z" fill="#005AEE" p-id="11534"></path></svg>