<?xml version="1.0" standalone="no"?><!DOCTYPE svg PUBLIC "-//W3C//DTD SVG 1.1//EN" "http://www.w3.org/Graphics/SVG/1.1/DTD/svg11.dtd"><svg t="1559612441854" class="icon" style="" viewBox="0 0 1024 1024" version="1.1" xmlns="http://www.w3.org/2000/svg" p-id="3462" xmlns:xlink="http://www.w3.org/1999/xlink" width="200" height="200"><defs><style type="text/css"></style></defs><path d="M518.4 1024h-12.8C499.2 1024 128 864 128 486.4V128l6.4-19.2c230.4-153.6 518.4-153.6 748.8 0l12.8 19.2v358.4c0 377.6-371.2 537.6-377.6 537.6zM166.4 140.8v345.6c0 320 294.4 473.6 345.6 499.2 51.2-25.6 345.6-179.2 345.6-499.2V140.8C640 0 377.6 0 166.4 140.8z m710.4 345.6z" fill="" p-id="3463"></path><path d="M435.2 672c-12.8 0-32-6.4-38.4-19.2l-128-128c-6.4 0-6.4-12.8 0-19.2 6.4-6.4 19.2-6.4 25.6 0l128 128c6.4 6.4 19.2 6.4 25.6 0l288-288c6.4-6.4 19.2-6.4 25.6 0 6.4 6.4 6.4 19.2 0 25.6l-288 288c-6.4 6.4-25.6 12.8-38.4 12.8z" fill="" p-id="3464"></path></svg>