<?xml version="1.0" standalone="no"?><!DOCTYPE svg PUBLIC "-//W3C//DTD SVG 1.1//EN" "http://www.w3.org/Graphics/SVG/1.1/DTD/svg11.dtd"><svg t="1559742550495" class="icon" style="" viewBox="0 0 1024 1024" version="1.1" xmlns="http://www.w3.org/2000/svg" p-id="3906" xmlns:xlink="http://www.w3.org/1999/xlink" width="130" height="130"><defs><style type="text/css"></style></defs><path d="M935.253333 868.693333c-5.12 0-8.533333-1.706667-13.653333-3.413333-17.066667-6.826667-25.6-27.306667-17.066667-44.373333 23.893333-54.613333 35.84-110.933333 35.84-170.666667 0-235.52-191.146667-426.666667-426.666666-426.666667S85.333333 414.72 85.333333 650.24c0 59.733333 11.946667 116.053333 35.84 170.666667 6.826667 17.066667 0 37.546667-17.066666 44.373333-17.066667 6.826667-37.546667 0-44.373334-17.066667C30.72 785.066667 17.066667 718.506667 17.066667 650.24c0-273.066667 221.866667-494.933333 494.933333-494.933333s494.933333 221.866667 494.933333 494.933333c0 68.266667-13.653333 134.826667-40.96 197.973333-5.12 11.946667-18.773333 20.48-30.72 20.48z" fill="#FFC13D" p-id="3907"></path><path d="M476.16 706.56l281.6-256c5.12-3.413333 10.24 1.706667 8.533333 6.826667L556.373333 769.706667c-15.36 23.893333-46.08 32.426667-71.68 18.773333-25.6-15.36-32.426667-47.786667-17.066666-73.386667 3.413333-3.413333 5.12-6.826667 8.533333-8.533333z" fill="#FFC13D" p-id="3908"></path></svg>