<?xml version="1.0" standalone="no"?><!DOCTYPE svg PUBLIC "-//W3C//DTD SVG 1.1//EN" "http://www.w3.org/Graphics/SVG/1.1/DTD/svg11.dtd"><svg t="1559742663966" class="icon" style="" viewBox="0 0 1024 1024" version="1.1" xmlns="http://www.w3.org/2000/svg" p-id="4100" xmlns:xlink="http://www.w3.org/1999/xlink" width="130" height="130"><defs><style type="text/css"></style></defs><path d="M956.258 102.763C954.656 83.791 939.54 68.78 920.56 67.31c-245.245-19.08-421.89 99.615-531.024 249.523-60.317-19.761-125.07-12.72-184.12 20.551-56.879 32.04-105.327 86.024-136.418 152.01-7.122 15.111-3.784 33.088 8.293 44.634 12.077 11.55 30.19 14.077 44.96 6.282 62.19-32.789 132.212-26.615 174.26 15.377l171.225 171.038c0.309 0.332 0.524 0.714 0.847 1.036 42.01 41.965 48.194 111.876 15.387 173.959-7.805 14.77-5.292 32.879 6.244 44.966a38.838 38.838 0 0 0 28.108 12.024 38.82 38.82 0 0 0 16.52-3.689c66.05-31.058 120.088-79.457 152.165-136.277 33.506-59.354 40.47-124.475 20.247-185.057 44.042-31.61 83.467-67.24 116.585-105.894 101.668-118.667 146.224-261.667 132.42-425.029zM195.55 441.833c41.322-41.26 94.36-65.905 149.61-56.208a737.126 737.126 0 0 0-39.702 81.27c-33.062-17.797-70.897-26.449-109.908-25.062z m386.905 386.76c1.366-39.393-7.46-77.512-25.59-110.747a798.745 798.745 0 0 0 81.675-40.295c10.455 55.756-14.333 109.364-56.085 151.042zM505.637 654.78L368.72 518.01c68.619-183.8 239.044-380.192 512.044-374.88 9.175 325.338-259.443 466.252-375.127 511.65z m250.955-387.015c11.75 11.755 18.45 28.067 18.45 44.673 0 16.605-6.7 32.827-18.45 44.576-11.75 11.75-28.066 18.546-44.67 18.546-16.606 0-32.821-6.795-44.57-18.546-11.75-11.75-18.55-27.972-18.55-44.576 0-16.606 6.8-32.918 18.55-44.673 11.649-11.75 27.964-18.45 44.57-18.45 16.605 0 32.921 6.7 44.67 18.45z m-546.84 403.34c-44.643 44.6-46.392 133.923-46.292 151.25 0.128 21.275 17.34 39.245 38.615 39.245h1.257c20 0 105.826-3.267 149.471-46.858 27.558-27.531 33.344-55.617 33.344-74.067-0.005-25.857-11.105-51.343-31.27-71.486-49.162-49.1-109.684-33.486-145.126 1.916z m88.149 88.044c-9.565 9.555-31.048 16.05-52.978 19.754 3.798-22.116 10.422-43.534 19.73-52.832 6.345-6.336 12.39-10.575 18.943-10.575 5.04 0 10.38 2.508 16.382 8.501 5.392 5.387 8.482 11.352 8.482 16.368 0 6.811-5.747 13.976-10.56 18.784z" p-id="4101"></path></svg>