<?xml version="1.0" standalone="no"?><!DOCTYPE svg PUBLIC "-//W3C//DTD SVG 1.1//EN" "http://www.w3.org/Graphics/SVG/1.1/DTD/svg11.dtd"><svg t="1559802522609" class="icon" style="" viewBox="0 0 1024 1024" version="1.1" xmlns="http://www.w3.org/2000/svg" p-id="2383" xmlns:xlink="http://www.w3.org/1999/xlink" width="130" height="130"><defs><style type="text/css"></style></defs><path d="M512.1 63.7c-247.4 0-448 200.6-448 448s200.6 448 448 448 448-200.6 448-448-200.6-448-448-448z m0 832.5c-212.4 0-384.5-172.1-384.5-384.5s172.1-384.5 384.5-384.5 384.5 172.1 384.5 384.5-172.1 384.5-384.5 384.5z" fill="#333333" p-id="2384"></path><path d="M727.3 587.7l-183.2-95V224c0-17.8-14.4-32.2-32.2-32.2-17.8 0-32.2 14.4-32.2 32.2v289.2c0 15.1 10.4 27.7 24.4 31.3l193.7 100.4c15.8 8.2 35.3 2 43.5-13.8 7.9-15.8 1.8-35.2-14-43.4z" fill="#333333" p-id="2385"></path></svg>