<?xml version="1.0" standalone="no"?><!DOCTYPE svg PUBLIC "-//W3C//DTD SVG 1.1//EN" "http://www.w3.org/Graphics/SVG/1.1/DTD/svg11.dtd"><svg t="1557714938763" class="icon" style="" viewBox="0 0 1024 1024" version="1.1" xmlns="http://www.w3.org/2000/svg" p-id="1473" xmlns:xlink="http://www.w3.org/1999/xlink" width="200" height="200"><defs><style type="text/css"></style></defs><path d="M732 345c-5-1.3-10 1.3-13.8 3.8L657.9 409 614 365l60.3-60.3c3.8-3.8 5-8.8 3.8-13.8-1.3-5-3.8-8.8-8.8-11.3-59-28.9-130.6-16.3-177 30.1-35.1 35.1-51.5 84.1-43.9 133.1l-18.8 17.6c-6.3 6.3-6.3 16.3 0 22.6 6.3 6.3 16.3 6.3 22.6 0l23.8-23.8c3.8-3.8 5-8.8 3.8-13.8-8.8-41.4 5-84.1 33.9-113 31.4-31.4 77.8-43.9 121.8-32.6l-54 54c-6.3 6.3-6.3 16.3 0 22.6l66.5 66.5c6.3 6.3 16.3 6.3 22.6 0l54-54c11.3 42.7 0 89.1-32.6 121.8-30.1 30.1-71.6 42.7-113 33.9-5-1.3-10 0-13.8 3.8L408.1 704c-23.9 23.8-64 23.8-89.1 0-25.1-23.9-23.8-64 0-89.1l67.8-66.5c6.3-6.3 6.3-16.3 0-22.6-6.3-6.3-16.3-6.3-22.6 0l-66.5 66.5c-36.4 37.7-36.4 96.7 0 133.1 18.8 18.8 42.7 27.6 66.5 27.6 23.8 0 47.7-8.8 66.5-27.6L580.1 576c49 7.5 97.9-8.8 133.1-43.9 46.4-46.4 59-118 30.1-178.3-1.3-5.1-6.3-8.8-11.3-8.8z m0 0" p-id="1474"></path><path d="M351.2 624.4c-6.3 6.3-9.9 15.3-9.9 24.3s3.6 17.1 9.9 24.3c6.3 6.3 15.3 9.9 24.3 9.9s17.1-3.6 24.3-9.9c6.3-6.3 9.9-14.4 9.9-24.3s-3.6-17.1-9.9-24.3c-6.3-6.3-15.3-9.9-24.3-9.9s-18 3.6-24.3 9.9z m35.1 23.4c0 2.7-0.9 5.4-3.6 8.1-4.5 4.5-11.7 4.5-16.2 0-1.8-1.8-3.6-4.5-3.6-8.1s0.9-5.4 3.6-8.1c1.8-1.8 4.5-3.6 8.1-3.6 3.6 0 5.4 0.9 8.1 3.6 2.7 2.7 3.6 5.4 3.6 8.1z m0 0M747 554.6c-8.8-2.5-17.6 2.5-18.8 11.3-25.1 90.4-104.2 154.4-197.1 160.7-8.8 0-15.1 7.5-15.1 16.3s7.5 15.1 15.1 15.1h1.3c106.7-7.5 197.1-80.3 226-183.3 2.5-8.8-2.6-17.6-11.4-20.1z m-450.6-47.7c0-99.2 66.5-185.8 161.9-212.1 8.8-2.5 13.8-11.3 11.3-18.8-2.5-8.8-11.3-13.8-18.8-11.3C341.6 294.7 265 393.9 265 506.9c0 8.8 7.5 16.3 16.3 16.3s15.1-7.5 15.1-16.3z m0 0" p-id="1475"></path><path d="M512 1012c-275.7 0-500-224.3-500-500S236.3 12 512 12s500 224.3 500 500-224.3 500-500 500z m0-957.6C259.7 54.4 54.4 259.7 54.4 512S259.7 969.6 512 969.6 969.6 764.3 969.6 512 764.3 54.4 512 54.4z" p-id="1476"></path></svg>