<?xml version="1.0" standalone="no"?><!DOCTYPE svg PUBLIC "-//W3C//DTD SVG 1.1//EN" "http://www.w3.org/Graphics/SVG/1.1/DTD/svg11.dtd"><svg t="1557407215289" class="icon" style="" viewBox="0 0 1024 1024" version="1.1" xmlns="http://www.w3.org/2000/svg" p-id="31006" xmlns:xlink="http://www.w3.org/1999/xlink" width="200" height="200"><defs><style type="text/css"></style></defs><path d="M933.001168 507.160094c0 232.259171-188.954965 421.219255-421.222327 421.219256-232.256099 0-421.222327-188.960084-421.222327-421.219256C90.55549 274.896828 279.521718 85.937767 511.777817 85.937767c232.268386 0 421.223351 188.959061 421.223351 421.222327z m-53.422241 0c0-202.808133-165.001168-367.799063-367.80111-367.799062-202.806086 0-367.793943 164.990929-367.793943 367.799062 0 202.805062 164.987857 367.793943 367.793943 367.793943 202.799942 0 367.80111-164.987857 367.80111-367.793943z" fill="#262435" p-id="31007"></path><path d="M511.777817 663.401923c-23.133665 0-41.953701 18.823108-41.953701 41.957797 0 23.136737 18.820036 41.959844 41.953701 41.959844 23.143904 0 41.965988-18.824132 41.965988-41.959844 0.001024-23.134689-18.822084-41.957797-41.965988-41.957797zM511.777817 267.005743c-14.722447 0-26.71112 11.975363-26.71112 26.707025v274.429936c0 14.731662 11.988673 26.712144 26.71112 26.712144 14.727567 0 26.715216-11.980482 26.715216-26.712144V293.712768c0-14.731662-11.987649-26.707025-26.715216-26.707025z" fill="#262435" p-id="31008"></path></svg>