<?xml version="1.0" standalone="no"?><!DOCTYPE svg PUBLIC "-//W3C//DTD SVG 1.1//EN" "http://www.w3.org/Graphics/SVG/1.1/DTD/svg11.dtd"><svg t="1559657593578" class="icon" style="" viewBox="0 0 1024 1024" version="1.1" xmlns="http://www.w3.org/2000/svg" p-id="5954" xmlns:xlink="http://www.w3.org/1999/xlink" width="130" height="130"><defs><style type="text/css"></style></defs><path d="M911.5 129.5 543 10.3c-20.1-6.4-41.9-6.4-62 0L112.5 129.5c-31.3 10.1-52.3 39-52.3 71.9l0 261.7c0 151.2 72.7 294.9 194.6 384.6l212.4 156.2c13.1 9.7 28.6 14.7 44.8 14.7 16.2 0 31.7-5.1 44.8-14.7l212.5-156.2c121.9-89.6 194.6-233.4 194.6-384.6l0-261.7C963.8 168.5 942.8 139.6 911.5 129.5zM899.4 464.8c0 130.5-62.8 254.6-167.9 331.9l-205 150.7c-8.5 6.2-20.5 6.3-29.1 0L292.5 796.7c-105.2-77.3-167.9-201.4-167.9-331.9l0-252.4c0-10.6 6.8-20 16.9-23.2L497 74.2c4.9-1.6 9.9-2.4 15-2.4 5.1 0 10.1 0.8 15 2.4l355.4 115c10.1 3.2 16.9 12.6 16.9 23.2L899.4 464.8 899.4 464.8zM737.9 290.1 286.1 290.1c-13.9 0-25.1 11.2-25.1 25.1 0 13.9 11.2 37.1 25.1 37.1l194.8 0 0 362.5c0 13.9 17.2 25.1 31.1 25.1 13.9 0 32.1-11.2 32.1-25.1L544.1 352.3l193.8 0c13.9 0 25.1-23.2 25.1-37.1S751.8 290.1 737.9 290.1z" p-id="5955" fill="#2c2c2c"></path></svg>