<?xml version="1.0" standalone="no"?><!DOCTYPE svg PUBLIC "-//W3C//DTD SVG 1.1//EN" "http://www.w3.org/Graphics/SVG/1.1/DTD/svg11.dtd"><svg t="1559657277687" class="icon" style="" viewBox="0 0 1024 1024" version="1.1" xmlns="http://www.w3.org/2000/svg" p-id="5828" xmlns:xlink="http://www.w3.org/1999/xlink" width="130" height="130"><defs><style type="text/css"></style></defs><path d="M511.904609 999.934099a32.923679 32.923679 0 0 1-7.522298-0.87215 385.258827 385.258827 0 0 1-26.655098-7.290633 32.501231 32.501231 0 0 1-3.951931-1.526263 25.592164 25.592164 0 0 0-2.957135-1.158325h-0.136274c-141.015823-46.523775-261.740521-176.133505-331.226381-355.673849-0.531467-1.362735-1.049306-2.657333-1.553518-3.85654a56.417231 56.417231 0 0 1-2.003221-5.45094l-0.231665-0.72225c-0.599603-1.771556-1.253716-3.583993-1.975966-5.532704l-0.081764-0.231665c-30.49801-84.421436-49.058462-223.815605-55.626845-317.517267a19.200937 19.200937 0 0 0-0.422448-3.011644 32.705641 32.705641 0 0 1-0.763131-5.450941l-0.558722-10.302277a32.705641 32.705641 0 0 1 27.445484-34.15014 493.800673 493.800673 0 0 0 71.093888-16.775268l0.46333-0.149901c10.452178-3.147918 21.803761-6.813675 34.599843-11.433347l1.253716-0.408821c26.954899-8.094646 60.914257-22.962086 98.212315-42.994291l1.935084-1.062933c9.252971-4.98761 18.505942-10.193258 27.486366-15.453416l0.218038-0.122646c22.621402-12.986865 44.970257-27.172937 66.256178-42.163022l18.097121-12.891474 4.551536-3.311446a951.753238 951.753238 0 0 0 62.576793-49.794339 32.882797 32.882797 0 0 1 42.885272 0 939.924698 939.924698 0 0 0 62.617676 49.794339l8.912287 6.459364c4.660554 3.365956 9.062188 6.554756 13.055002 9.307481 9.021306 6.268581 18.124376 12.387262 26.43706 17.715555l2.425668 1.5944c13.722742 8.816896 26.028239 16.352821 37.638742 23.002968l0.245293 0.136273c9.729928 5.723487 19.637012 11.297074 29.435077 16.570859 37.33894 20.113969 71.448199 35.049546 98.621136 43.198701l1.362735 0.436075c11.937559 4.265361 23.24826 8.012882 33.591419 11.106291l0.381565 0.109018a510.466923 510.466923 0 0 0 72.115939 17.115953 32.705641 32.705641 0 0 1 27.499994 33.795829l-0.599604 10.656588a32.596622 32.596622 0 0 1-0.804013 5.682605 19.078291 19.078291 0 0 0-0.449703 2.902626c-6.595638 93.619898-25.10158 232.905048-55.531453 317.067564-0.72225 2.016848-1.362735 3.992814-1.989593 5.859761l-0.422448 1.226462-0.340684 0.92666c-0.381566 1.076561-0.899405 2.534687-1.621655 4.26536l-1.362735 3.638503c-69.663016 179.594852-190.428596 309.340857-331.38991 355.837377a25.265108 25.265108 0 0 0-2.902625 1.144697 32.283193 32.283193 0 0 1-4.088206 1.5944c-9.15758 2.861744-18.219768 5.328294-26.927644 7.331515a32.705641 32.705641 0 0 1-7.317887 0.831268z m-16.638995-59.796814c5.45094 1.703419 11.092663 3.256937 16.666249 4.660554 5.45094-1.362735 10.983645-2.902626 16.625368-4.646927a79.038633 79.038633 0 0 1 7.576807-2.916253c125.371625-41.345381 233.81808-159.440001 297.512316-323.840357l1.826065-4.660554c0.218038-0.504212 0.408821-1.049306 0.681368-1.812438l0.381566-1.062933c0.72225-2.248513 1.526263-4.57879 2.357531-6.936322v-0.149901c26.614216-73.587693 45.447214-204.096829 52.369908-301.382484A565.535047 565.535047 0 0 1 831.752153 282.086156c-11.010899-3.297819-22.921204-7.236123-35.431112-11.705894-30.511638-9.184834-67.89146-25.496773-108.187536-47.164261-10.356786-5.573586-20.822592-11.474229-31.111241-17.511145-12.400889-7.127104-25.469518-15.112732-39.969019-24.420212l-2.480178-1.621655c-8.816896-5.682605-18.437805-12.141969-27.840677-18.683097-4.401634-3.025272-9.252971-6.541128-13.954407-9.947966l-8.953169-6.472992c-17.715556-12.932356-35.199446-26.532451-52.083734-40.609504a1022.814421 1022.814421 0 0 1-51.783932 40.459603l-7.576807 5.491823-15.766844 11.228937c-22.675911 15.930373-46.332992 31.01585-70.41252 44.820355-9.539145 5.559959-19.255446 11.051781-29.026257 16.352821l-1.962338 1.076561c-40.214311 21.599351-77.45786 37.85678-107.765088 47.027986-13.327549 4.715063-25.196971 8.626113-36.26238 11.964814a531.030595 531.030595 0 0 1-58.733881 14.990086c6.909067 97.1085 25.742065 227.740282 52.397163 301.559639 0.899405 2.425668 1.717046 4.701436 2.480178 6.949949v0.190783l0.46333 1.362735 0.245292 0.776759q1.171952 2.72547 2.248513 5.532704c63.544335 164.195946 171.936281 282.099783 297.38967 323.513302a80.210585 80.210585 0 0 1 7.576807 2.888998z m31.860745 0.66774h-0.081764zM187.941605 607.997871v0.081764z" fill="#040000" p-id="5829"></path><path d="M470.586482 737.553092a30.879576 30.879576 0 0 1-22.049053-9.334735L294.303075 570.236482a31.997019 31.997019 0 0 1 0-44.793101 30.729675 30.729675 0 0 1 44.166243 0L470.559227 660.9265l259.955339-266.401075 2.861743-2.98439a30.729675 30.729675 0 0 1 44.070852 0 32.024274 32.024274 0 0 1 0 44.711337l-284.811626 291.952358a30.865949 30.865949 0 0 1-22.049053 9.348362z" fill="#040000" p-id="5830"></path></svg>